<svg width="500px" height="500px" viewBox="0 0 320 320" xmlns="http://www.w3.org/2000/svg" xmlns:xlink="http://www.w3.org/1999/xlink" aria-hidden="true" role="img" class="iconify iconify--fxemoji" preserveAspectRatio="xMidYMid meet"><path fill="#6B8DA1" d="M172.385 36.875v76.963c0 6.813 -5.572 12.385 -12.385 12.385s-12.385 -5.572 -12.385 -12.385V36.875c0 -6.813 5.572 -12.385 12.385 -12.385s12.385 5.572 12.385 12.385m57.344 64.402a12.383 12.383 0 0 0 17.514 0l31.617 -31.617a12.383 12.383 0 0 0 -17.514 -17.514l-31.617 31.617a12.383 12.383 0 0 0 0 17.514m-139.451 0a12.383 12.383 0 0 0 0 -17.514L58.66 52.148a12.383 12.383 0 0 0 -17.514 17.514l31.617 31.617a12.383 12.383 0 0 0 17.514 0m161.865 200.359c4.816 -4.816 4.816 -12.697 0 -17.514l-54.42 -54.42c-4.816 -4.816 -12.697 -4.816 -17.514 0s-4.816 12.697 0 17.514l54.42 54.42c4.816 4.816 12.697 4.816 17.514 0m-166.768 0 54.42 -54.42c4.816 -4.816 4.816 -12.697 0 -17.514s-12.697 -4.816 -17.514 0l-54.42 54.42c-4.816 4.816 -4.816 12.697 0 17.514s12.697 4.816 17.514 0"/><path fill="#FFB636" d="M221.449 28.557c22.574 -19.359 56.602 -18.365 77.98 3.014 21.4 21.4 22.375 55.475 2.955 78.049a5.469 5.469 0 0 1 -5.912 0.254l-75.332 -75.328a5.469 5.469 0 0 1 0.309 -5.986M23.543 109.865l75.33 -75.33a5.469 5.469 0 0 0 -0.254 -5.912C76.045 9.203 41.971 10.176 20.57 31.578 -0.809 52.955 -1.803 86.98 17.557 109.557a5.469 5.469 0 0 0 5.986 0.309"/><path fill="#FFD469" d="M298.445 67.834a6.016 6.016 0 0 1 -5.861 -4.713 33.789 33.789 0 0 0 -8.629 -16.107 33.887 33.887 0 0 0 -15.686 -9.295 6.008 6.008 0 0 1 3.107 -11.607 45.898 45.898 0 0 1 21.254 12.586 45.84 45.84 0 0 1 11.689 21.832 6.008 6.008 0 0 1 -4.57 7.162 5.859 5.859 0 0 1 -1.301 0.143M26.719 62.738a33.867 33.867 0 0 1 9.295 -15.686 33.789 33.789 0 0 1 16.107 -8.629 6.006 6.006 0 1 0 -2.592 -11.732 45.82 45.82 0 0 0 -21.832 11.689 45.898 45.898 0 0 0 -12.586 21.254 6.008 6.008 0 0 0 5.807 7.563 6.016 6.016 0 0 0 5.801 -4.455"/><path fill="#FB5046" d="M160 40.246c-73.133 0 -132.414 59.283 -132.414 132.414s59.281 132.42 132.414 132.42 132.414 -59.289 132.414 -132.42 -59.281 -132.414 -132.414 -132.414"/><path fill="#F9F9F8" d="M52.354 172.664c0 59.357 48.291 107.648 107.648 107.648s107.645 -48.291 107.645 -107.648 -48.287 -107.648 -107.645 -107.648 -107.648 48.289 -107.648 107.648"/><path fill="#6B8DA1" d="M160 180.906h76.982a6.922 6.922 0 0 0 0 -13.842H160a6.926 6.926 0 0 0 -6.926 6.918 6.926 6.926 0 0 0 6.926 6.924"/><path fill="#6B8DA1" d="M160 180.906a6.926 6.926 0 0 0 6.926 -6.924V98.652a6.928 6.928 0 0 0 -13.852 0v75.33a6.928 6.928 0 0 0 6.926 6.926"/></svg>